<svg width="25" height="26" fill="none" xmlns="http://www.w3.org/2000/svg"><path fill-rule="evenodd" clip-rule="evenodd" d="M0 13.3542C0 6.45125 5.597.854248 12.5.854248S25 6.45125 25 13.3542c0 6.903-5.597 12.5-12.5 12.5S0 20.2572 0 13.3542zm21 0c0-4.68695-3.813-8.49995-8.5-8.49995-4.687 0-8.5 3.813-8.5 8.49995 0 4.687 3.813 8.5 8.5 8.5 4.687 0 8.5-3.813 8.5-8.5z" fill="#C5C5C5"/><path d="M12.5 17.8542c2.4853 0 4.5-2.0147 4.5-4.5 0-2.4852-2.0147-4.49995-4.5-4.49995S8 10.869 8 13.3542c0 2.4853 2.0147 4.5 4.5 4.5z" fill="#C5C5C5"/></svg>