<svg width="152" height="152" fill="none" xmlns="http://www.w3.org/2000/svg"><path fill="#EE3643" d="M0 0h152v152H0z"/><path fill-rule="evenodd" clip-rule="evenodd" d="M35.8913 35C33.2296 35 33 37.81 33 37.81v21.2745C33 63.1275 36.9912 63 36.9912 63h12.3833c2.6604 0 2.2012 2.0554 2.2012 2.0554s-3.3946 17.9154-3.7603 20.9463c-.3671 3.0337-2.5682 4.9629-2.5682 4.9629s-2.9353 1.6539-4.1273 2.2969c-1.192.6431-1.192 3.7385-1.192 3.7385H83v-1.7183c0-2.0202-9.5023-4.3171-13.0783-4.6848-3.5773-.3662-2.8432-2.7568-2.8432-2.7568l1.467-10.7479h4.1273l1.5591-10.8415h-4.1273L70.5597 63h11.8361C90.3768 62.1724 96 56.6967 96 56.6967V40.1583C89.6715 35.6567 79.7354 35 79.7354 35H35.8913zm79.6497 10h18.544c.791 0 1.915 1.6707 1.915 3.5s-1.124 3.5-1.915 3.5h-18.544c-.853 3.0493-2.848 5-5.172 5H100V40h10.369c2.325 0 4.319 1.9507 5.172 5zm-72.9406 74C40 119 40 116.176 40 116.176v-15.158h43v15.25c0 2.479-2.7856 2.732-2.7856 2.732h-37.614zM82 42.5229v-.0458C82 41.6647 81.3806 41 80.6237 41H39.3763C38.6193 41 38 41.6647 38 42.4771v.0458C38 43.3353 38.6193 44 39.3763 44h41.2474C81.3806 44 82 43.3353 82 42.5229z" fill="#fff"/></svg>