<svg width="21" height="21" fill="none" xmlns="http://www.w3.org/2000/svg"><path d="M13.2729 10.5l7.422-7.42201c.389-.389.389-1.025 0-1.414L19.3359.304995c-.389-.3890004-1.025-.3890004-1.414 0l-7.422 7.421995L3.07793.304995c-.389-.3890004-1.025-.3890004-1.414 0L.304934 1.66399c-.3890004.389-.3890004 1.025 0 1.414L7.72693 10.5.305934 17.922c-.3890004.389-.3890004 1.025 0 1.414l1.358996 1.359c.389.389 1.025.389 1.414 0l7.42197-7.422 7.422 7.422c.389.389 1.025.389 1.414 0l1.359-1.359c.389-.389.389-1.025 0-1.414l-7.423-7.422z" fill="#EE3643"/></svg>